<svg width="242" height="112" viewBox="0 0 242 112" fill="none" xmlns="http://www.w3.org/2000/svg">
<path d="M9.41488 100.412C23.1033 75.4747 36.1958 53.8043 48.6924 35.4012C54.503 26.8466 61.1703 17.7986 68.6943 8.25726C71.6368 4.47796 74.2023 2.58365 76.3906 2.57434C76.823 2.5762 77.2495 2.67501 77.6387 2.8635C78.0279 3.05199 78.3699 3.32534 78.6394 3.66345C79.0306 4.11949 79.2527 4.6965 79.2679 5.29713C79.2679 6.64687 77.9456 8.97403 75.301 12.2786C58.1392 33.7442 38.7147 63.8948 17.0274 102.73C15.7457 105.175 14.2647 107.51 12.5995 109.712C12.1502 110.321 11.5626 110.814 10.8851 111.152C10.2075 111.489 9.45944 111.661 8.70251 111.653C3.42267 111.653 0.778111 106.807 0.768799 97.1172C0.768799 87.8831 3.09677 73.5711 7.7527 54.1813C11.1611 39.4344 15.8727 25.0193 21.8322 11.1057C22.9964 8.19321 24.3447 5.35767 25.8689 2.61623C26.3466 1.8939 26.9991 1.30396 27.7659 0.901181C28.5326 0.498402 29.3888 0.295858 30.2548 0.312355C30.7711 0.285511 31.2872 0.368725 31.7688 0.556497C32.2505 0.744268 32.6866 1.0323 33.0484 1.40146C33.3413 1.6657 33.5748 1.98897 33.7337 2.34997C33.8926 2.71097 33.9732 3.10151 33.9702 3.4959C33.939 4.93891 33.6259 6.36189 33.0484 7.68477L30.0872 14.6662C24.6227 27.6459 20.022 40.9723 16.315 54.5583C11.5939 71.8164 9.23329 85.6351 9.23329 96.0142L9.41488 100.412Z" fill="#706DF2"/>
<path d="M55.2152 84.7042V86.1005C55.1852 87.1516 55.4829 88.1861 56.0672 89.0606C56.7953 90.0469 57.7649 90.8294 58.8827 91.3331C60.0006 91.8368 61.2291 92.0448 62.4505 91.937C68.9689 91.937 76.465 86.9615 84.9388 77.0106C86.4333 75.2932 87.7323 74.4414 88.738 74.4414C89.0466 74.4538 89.3484 74.537 89.6197 74.6847C89.891 74.8324 90.1245 75.0407 90.3024 75.2932C90.5769 75.6252 90.7384 76.036 90.7633 76.4661C90.7633 78.4767 88.277 81.9116 83.3045 86.7288C79.5977 90.3735 75.405 93.4888 70.8452 95.9862C67.1073 98.1768 62.8837 99.4051 58.5536 99.5607C56.8152 99.6386 55.0823 99.3137 53.4904 98.6113C51.8984 97.9089 50.4905 96.8479 49.3767 95.5115C47.7707 93.3051 46.9764 90.6121 47.1279 87.8877C47.1279 79.1283 51.2484 70.5504 59.4894 62.1541C66.1846 55.3122 72.0185 51.8913 76.9911 51.8913C78.3169 51.8771 79.6078 52.3155 80.6506 53.134C81.3015 53.636 81.8242 54.2848 82.1762 55.0274C82.5282 55.7699 82.6995 56.5853 82.676 57.4067C82.676 60.1993 81.4049 63.569 78.8627 67.5158C73.6294 75.7726 65.747 81.502 55.2152 84.7042ZM56.9193 78.6443C59.9707 77.6934 62.8582 76.2807 65.4815 74.4554C68.9279 71.8583 71.856 68.6376 74.1137 64.9606C74.8076 63.9789 75.2138 62.8233 75.287 61.6235C75.287 60.5902 74.7981 60.0596 73.8064 60.0596C72.4562 60.0596 70.5379 61.0743 68.0516 63.1035C63.1342 67.3039 59.3135 72.6377 56.9193 78.6443Z" fill="#706DF2"/>
<path d="M101.644 73.8131C100.089 77.8624 98.9205 81.1204 98.1383 83.5872C97.5288 85.266 97.1392 87.0166 96.979 88.7953C96.979 90.0939 97.5936 90.7362 98.8367 90.7362C100.699 90.7362 103.111 88.9769 106.072 85.4582C108.327 82.4959 110.407 79.4049 112.302 76.2008C113.391 74.4415 114.523 73.5618 115.724 73.5618C116.925 73.5618 117.749 74.2041 117.749 75.5026C117.749 77.7367 115.179 82.2467 110.039 89.0327C104.703 96.1352 99.7539 99.6864 95.1911 99.6864C94.2435 99.6998 93.3071 99.48 92.4644 99.0467C91.6217 98.6133 90.8985 97.9795 90.3583 97.201C89.4587 95.9301 88.9978 94.4008 89.0453 92.8446C89.2977 88.7157 90.1881 84.6509 91.6852 80.7946C93.9695 74.41 96.5898 68.1505 99.5351 62.0424C108.456 43.3321 117.558 27.9077 126.842 15.7693C134.292 6.02319 140.438 1.15014 145.28 1.15014C146.01 1.13159 146.736 1.28344 147.397 1.59366C148.059 1.90388 148.64 2.36395 149.093 2.93739C150.127 4.08477 150.686 5.58215 150.657 7.12626C150.657 14.3684 144.172 26.4463 131.2 43.36C124.881 51.4418 117.911 58.9931 110.36 65.938C108.223 67.851 105.332 70.5039 101.644 73.8131ZM107.162 61.4559C118.626 51.4166 128.398 39.5969 136.103 26.4509C140.517 19.153 142.724 14.3078 142.724 11.9155C142.724 10.7706 142.221 10.1981 141.243 10.1981C138.394 10.1981 133.207 15.8763 125.683 27.2328C118.6 38.1252 112.407 49.5699 107.162 61.4559Z" fill="#FC971E"/>
<path d="M131.885 73.8132C130.334 77.8624 129.091 81.1297 128.393 83.5872C127.781 85.2661 127.387 87.0164 127.219 88.7953C127.219 90.0939 127.848 90.7362 129.091 90.7362C130.953 90.7362 133.365 88.9769 136.326 85.4582C138.575 82.4948 140.65 79.4038 142.542 76.2008C143.632 74.4415 144.777 73.5618 145.964 73.5618C147.151 73.5618 147.989 74.2041 147.989 75.5027C147.989 77.7367 145.424 82.2468 140.293 89.0327C134.948 96.1352 129.994 99.6864 125.432 99.6864C124.486 99.6999 123.551 99.4802 122.711 99.0467C121.87 98.6132 121.15 97.9793 120.613 97.201C119.684 95.9401 119.194 94.4102 119.216 92.8446C119.468 88.7158 120.359 84.6509 121.856 80.7946C124.146 74.4101 126.771 68.1507 129.72 62.0424C138.65 43.3321 147.752 27.9078 157.027 15.7693C164.476 6.02321 170.622 1.15015 175.464 1.15015C176.195 1.13484 176.918 1.28812 177.58 1.59811C178.241 1.90809 178.822 2.36641 179.277 2.9374C180.302 4.08981 180.855 5.58499 180.828 7.12628C180.828 14.3684 174.347 26.4463 161.385 43.36C155.083 51.4391 148.132 58.9902 140.601 65.9381C138.505 67.851 135.572 70.504 131.885 73.8132ZM137.472 61.456C148.932 51.4128 158.704 39.5938 166.413 26.4509C170.808 19.153 173.011 14.3079 173.02 11.9155C173.02 10.7706 172.531 10.1981 171.539 10.1981C168.69 10.1981 163.503 15.8764 155.979 27.2329C148.888 38.1271 142.68 49.5714 137.416 61.456H137.472Z" fill="#FC971E"/>
<path d="M155.448 84.7042V86.1005C155.418 87.1516 155.716 88.1861 156.3 89.0606C157.028 90.0469 157.998 90.8294 159.116 91.3331C160.234 91.8368 161.462 92.0448 162.684 91.937C169.202 91.937 176.693 86.9615 185.158 77.0106C186.666 75.2932 187.951 74.4414 188.971 74.4414C189.28 74.4538 189.582 74.537 189.853 74.6847C190.124 74.8324 190.358 75.0407 190.536 75.2932C190.81 75.6252 190.972 76.036 190.996 76.4661C190.996 78.4767 188.51 81.9116 183.524 86.7288C179.824 90.3763 175.636 93.4919 171.078 95.9862C167.34 98.1768 163.117 99.4051 158.787 99.5607C157.048 99.6386 155.315 99.3137 153.723 98.6113C152.132 97.9089 150.724 96.8479 149.61 95.5115C148.004 93.3051 147.21 90.6121 147.361 87.8877C147.361 79.1283 151.482 70.5504 159.723 62.1541C166.408 55.3122 172.242 51.8913 177.224 51.8913C178.55 51.8771 179.841 52.3155 180.884 53.134C181.535 53.636 182.057 54.2848 182.409 55.0274C182.761 55.7699 182.933 56.5853 182.909 57.4067C182.909 60.1993 181.638 63.569 179.096 67.5158C173.853 75.7726 165.971 81.502 155.448 84.7042ZM157.152 78.6443C160.204 77.6934 163.091 76.2807 165.715 74.4554C169.161 71.8583 172.089 68.6376 174.347 64.9606C175.041 63.9789 175.447 62.8233 175.52 61.6235C175.52 60.5902 175.017 60.0596 174.04 60.0596C172.68 60.0596 170.762 61.0743 168.285 63.1035C163.363 67.3001 159.542 72.635 157.152 78.6443Z" fill="#706DF2"/>
<path d="M203.274 74.0505C208.729 68.2826 214.627 62.9511 220.916 58.1048C223.348 56.2132 225.895 54.4738 228.542 52.8967C229.316 52.3567 230.182 51.9638 231.098 51.7377C231.88 51.7377 232.662 52.2963 233.431 53.4412C233.847 53.9218 234.097 54.5243 234.143 55.1586C234.143 56.0802 233.151 57.3508 231.182 58.9566C225.893 63.1547 223.248 66.3196 223.248 68.4513C223.248 69.6382 223.919 70.2386 225.273 70.2386C227.49 70.2386 231.326 68.4001 236.783 64.7232C237.455 64.1948 238.265 63.8701 239.116 63.7877C239.595 63.82 240.042 64.041 240.359 64.4021C240.57 64.5883 240.741 64.8156 240.861 65.0701C240.981 65.3246 241.048 65.6009 241.057 65.8821C241.057 67.446 238.878 69.8197 234.534 73.0451C229.971 76.4707 225.637 78.1788 221.53 78.1695C219.907 78.1803 218.315 77.7195 216.949 76.843C216.33 76.416 215.837 75.8302 215.522 75.1472C215.208 74.4642 215.083 73.7092 215.161 72.9614C215.27 71.3599 215.837 69.8235 216.795 68.5351C212.688 71.4394 207.865 76.4148 202.324 83.4615C198.669 88.5367 195.467 93.9239 192.756 99.5607C191.555 101.948 190.075 103.135 188.315 103.135C186.555 103.135 185.437 102.228 185.437 100.412C185.437 98.5973 186.946 93.9336 189.949 86.254C194.409 74.8603 199.065 66.0171 203.917 59.7245C206.92 55.8428 209.434 53.888 211.459 53.888C212.135 53.889 212.792 54.1096 213.331 54.5164C213.642 54.7356 213.896 55.0264 214.071 55.3642C214.246 55.7019 214.337 56.0768 214.337 56.4572C214.147 57.6732 213.608 58.8081 212.786 59.7245L208.596 64.9327C206.436 67.7299 204.647 70.7946 203.274 74.0505Z" fill="#706DF2"/>
</svg>
